<?xml version="1.0" encoding="utf-8"?>
<!-- Generator: Adobe Illustrator 19.1.0, SVG Export Plug-In . SVG Version: 6.00 Build 0)  -->
<!DOCTYPE svg PUBLIC "-//W3C//DTD SVG 1.1//EN" "http://www.w3.org/Graphics/SVG/1.1/DTD/svg11.dtd">
<svg version="1.1" id="Layer_1" xmlns="http://www.w3.org/2000/svg" xmlns:xlink="http://www.w3.org/1999/xlink" x="0px" y="0px"
	 viewBox="0 0 512 512" enable-background="new 0 0 512 512" xml:space="preserve">
<path fill-rule="evenodd" clip-rule="evenodd" d="M256,26C129,26,26,129,26,256c0,108.2,74.7,199,175.4,223.5
	c-0.1-53.8,0.2-107.7-0.1-161.5c-13.8-0.1-27.7,0.1-41.5-0.1c0.1-23.1,0-46.2,0-69.3c13.8-0.2,27.7,0,41.5-0.1
	c0.4-22.4-0.4-44.9,0.4-67.3c1.4-17.8,8.2-35.7,21.4-47.9c16.1-15.3,38.9-20.5,60.5-21.1c22.8-0.2,45.6-0.1,68.4-0.1
	c0.1,24.1,0.1,48.1,0,72.2c-14.7,0-29.5,0-44.2,0c-9.3-0.6-18.9,6.5-20.6,15.8c-0.2,16.1-0.1,32.2-0.1,48.3
	c21.6,0.1,43.2,0,64.8,0.1c-1.6,23.3-4.5,46.5-7.9,69.6c-19.1,0.2-38.2,0-57.3,0.1c-0.1,55.3,0,110.7-0.1,166
	C399.3,468.9,486,372.6,486,256C486,129,383,26,256,26z"/>
</svg>
