<?xml version="1.0" encoding="utf-8"?>
<!-- Generator: Adobe Illustrator 18.1.1, SVG Export Plug-In . SVG Version: 6.00 Build 0)  -->
<!DOCTYPE svg PUBLIC "-//W3C//DTD SVG 1.1//EN" "http://www.w3.org/Graphics/SVG/1.1/DTD/svg11.dtd">
<svg version="1.1" id="Layer_1" xmlns="http://www.w3.org/2000/svg" xmlns:xlink="http://www.w3.org/1999/xlink" x="0px" y="0px"
	 viewBox="0 0 100 100" style="enable-background:new 0 0 100 100;" xml:space="preserve">
<path style="fill-rule:evenodd;clip-rule:evenodd;fill:#404041;" d="M49.997,6.111C25.149,6.111,5,26.258,5,51.114
	c0,19.88,12.893,36.746,30.776,42.698c2.25,0.413,3.071-0.977,3.071-2.169c0-1.068-0.039-3.898-0.061-7.654
	c-12.517,2.719-15.159-6.032-15.159-6.032c-2.046-5.198-4.996-6.582-4.996-6.582c-4.086-2.792,0.309-2.735,0.309-2.735
	c4.516,0.318,6.893,4.637,6.893,4.637c4.014,6.877,10.532,4.891,13.096,3.739c0.409-2.908,1.571-4.891,2.857-6.016
	c-9.993-1.136-20.498-4.996-20.498-22.24c0-4.913,1.753-8.93,4.632-12.075c-0.463-1.138-2.007-5.714,0.441-11.909
	c0,0,3.778-1.21,12.375,4.613c3.589-0.998,7.439-1.497,11.266-1.515c3.821,0.017,7.671,0.517,11.266,1.515
	c8.591-5.823,12.362-4.613,12.362-4.613c2.455,6.195,0.911,10.771,0.448,11.909c2.884,3.146,4.626,7.163,4.626,12.075
	c0,17.287-10.521,21.091-20.546,22.205c1.616,1.389,3.055,4.136,3.055,8.333c0,6.016-0.055,10.869-0.055,12.345
	c0,1.203,0.811,2.603,3.094,2.164C82.118,87.844,95,70.988,95,51.114C95,26.258,74.85,6.111,49.997,6.111z"/>
</svg>
