<?xml version="1.0" encoding="utf-8"?>
<!-- Generator: Adobe Illustrator 18.1.1, SVG Export Plug-In . SVG Version: 6.00 Build 0)  -->
<!DOCTYPE svg PUBLIC "-//W3C//DTD SVG 1.1//EN" "http://www.w3.org/Graphics/SVG/1.1/DTD/svg11.dtd">
<svg version="1.1" id="Layer_1" xmlns="http://www.w3.org/2000/svg" xmlns:xlink="http://www.w3.org/1999/xlink" x="0px" y="0px"
	 viewBox="0 0 100 100" style="enable-background:new 0 0 100 100;" xml:space="preserve">
<g id="Layer_3">
	<path style="fill:#404041;" d="M56.177,12.761C35.323,9.107,15.343,23.089,11.649,43.943S21.937,84.776,42.83,88.47
		c20.893,3.694,40.833-10.288,44.527-31.181C91.052,36.435,77.07,16.455,56.177,12.761z M70.317,79.731
		c0-3.138-0.199-13.307-0.199-13.307l-30.824-5.442c0,0-6.832,19.94-7.15,20.893C19.156,74.687,11.57,59.791,14.271,44.34
		c1.033-5.918,3.495-11.201,6.911-15.65c0.715,1.748,3.257,5.124,6.594,6.554c3.456,1.47,6.633,2.383,10.208,0.914
		c3.774-1.549,6.435-5.561,6.395-9.652c-0.079-4.091-2.9-6.872-6.832-6.753c-1.946,0.079-3.734,1.668-3.893,3.376
		c0.437,0.079,2.224-0.04,2.622,1.629c0.199,0.794-0.04,1.47-0.715,1.986c-1.112,0.794-2.701,0.318-3.416-1.033
		c-1.112-1.986-0.357-4.608,1.072-6.316c1.549-1.787,5.084-3.972,9.613-1.867c10.089,4.608,4.449,19.861,3.217,24.468
		c8.461,1.509,16.921,2.979,25.422,4.488c0.636-5.124,0.596-18.987-1.748-25.263c11.162,7.706,17.477,21.37,14.935,35.59
		C83.028,66.464,77.666,74.448,70.317,79.731z M89.264,65.233c1.033-2.622,5.164-4.449,5.68-7.348c0.516-2.9-2.741-6.038-2.82-8.858
		c-0.079-2.9,3.059-6.197,2.423-8.937c-0.636-2.82-4.846-4.488-5.998-7.07c-1.152-2.622,0.477-6.872-1.192-9.215
		c-1.629-2.344-6.157-2.264-8.262-4.25c-2.066-1.986-2.185-6.514-4.608-8.063c-2.383-1.509-6.554,0.278-9.255-0.755
		c-2.622-1.033-4.449-5.164-7.348-5.68c-2.9-0.516-6.038,2.741-8.858,2.82c-2.9,0.079-6.197-3.059-8.937-2.423
		c-2.82,0.636-4.488,4.846-7.07,5.998c-2.622,1.152-6.872-0.477-9.215,1.192c-2.344,1.629-2.264,6.157-4.25,8.262
		c-1.986,2.066-6.514,2.185-8.063,4.608c-1.509,2.383,0.278,6.554-0.755,9.255c-1.033,2.622-5.164,4.449-5.68,7.348
		c-0.516,2.9,2.741,6.038,2.82,8.858c0.079,2.9-3.059,6.197-2.423,8.937c0.636,2.82,4.846,4.488,5.998,7.07
		c1.152,2.622-0.477,6.872,1.192,9.215c1.629,2.344,6.157,2.264,8.262,4.25c2.066,1.986,2.185,6.514,4.608,8.063
		c2.383,1.509,6.554-0.278,9.255,0.755c2.622,1.033,4.449,5.164,7.348,5.68c2.9,0.516,6.038-2.741,8.858-2.82
		c2.9-0.079,6.197,3.059,8.937,2.423c2.82-0.636,4.488-4.846,7.07-5.998c2.622-1.152,6.872,0.477,9.215-1.192
		c2.344-1.629,2.264-6.157,4.25-8.262c1.986-2.066,6.514-2.185,8.063-4.608C90.019,72.105,88.232,67.974,89.264,65.233z
		 M42.83,88.47C21.937,84.776,7.955,64.796,11.649,43.943S35.323,9.107,56.177,12.761s34.875,23.674,31.181,44.527
		C83.703,78.182,63.724,92.164,42.83,88.47z M69.801,21.262c2.383,6.276,2.423,20.139,1.748,25.263
		c-8.5-1.509-16.961-2.979-25.422-4.488c1.231-4.608,6.872-19.861-3.217-24.468c-4.528-2.066-8.103,0.119-9.613,1.907
		c-1.47,1.708-2.185,4.33-1.072,6.316c0.755,1.351,2.304,1.827,3.416,1.033c0.675-0.516,0.914-1.192,0.715-1.986
		c-0.437-1.668-2.185-1.549-2.622-1.629c0.159-1.708,1.946-3.297,3.893-3.376c3.932-0.119,6.753,2.661,6.832,6.753
		c0.079,4.131-2.582,8.103-6.395,9.652c-3.615,1.47-6.753,0.596-10.208-0.914c-3.337-1.43-5.879-4.806-6.594-6.554
		c-3.456,4.449-5.879,9.732-6.911,15.65c-2.701,15.412,4.886,30.307,17.875,37.497c0.357-0.993,7.15-20.893,7.15-20.893
		l30.824,5.442c0,0,0.159,10.129,0.199,13.307c7.348-5.243,12.711-13.267,14.419-22.879C87.239,42.632,80.963,28.968,69.801,21.262z
		 M42.83,88.47C21.937,84.776,7.955,64.796,11.649,43.943S35.323,9.107,56.177,12.761s34.875,23.674,31.181,44.527
		C83.703,78.182,63.724,92.164,42.83,88.47z M69.801,21.262c2.383,6.276,2.423,20.139,1.748,25.263
		c-8.5-1.509-16.961-2.979-25.422-4.488c1.231-4.608,6.872-19.861-3.217-24.468c-4.528-2.066-8.103,0.119-9.613,1.907
		c-1.47,1.708-2.185,4.33-1.072,6.316c0.755,1.351,2.304,1.827,3.416,1.033c0.675-0.516,0.914-1.192,0.715-1.986
		c-0.437-1.668-2.185-1.549-2.622-1.629c0.159-1.708,1.946-3.297,3.893-3.376c3.932-0.119,6.753,2.661,6.832,6.753
		c0.079,4.131-2.582,8.103-6.395,9.652c-3.615,1.47-6.753,0.596-10.208-0.914c-3.337-1.43-5.879-4.806-6.594-6.554
		c-3.456,4.449-5.879,9.732-6.911,15.65c-2.701,15.412,4.886,30.307,17.875,37.497c0.357-0.993,7.15-20.893,7.15-20.893
		l30.824,5.442c0,0,0.159,10.129,0.199,13.307c7.348-5.243,12.711-13.267,14.419-22.879C87.239,42.632,80.963,28.968,69.801,21.262z
		 M43.625,42.393l29.354,5.164c1.271,0.238,2.066,1.668,1.827,2.939c-0.238,1.271-1.47,2.344-2.741,2.145l-29.354-5.164
		c-1.271-0.238-2.066-1.668-1.827-2.939C41.122,43.267,42.354,42.195,43.625,42.393z M70.675,65.71l-31.221-5.521
		c-1.271-0.238-2.105-1.47-1.867-2.741c0.238-1.271,1.43-2.185,2.701-1.946l31.221,5.521c1.271,0.238,2.105,1.47,1.867,2.741
		C73.138,65.034,71.946,65.948,70.675,65.71z M79.096,58.123c-0.318,1.907-2.145,3.059-4.012,2.701l-38.093-6.713
		c-1.907-0.318-3.178-2.026-2.86-3.932c0.318-1.907,2.145-3.059,4.012-2.701l38.093,6.713
		C78.142,54.548,79.453,56.216,79.096,58.123z"/>
</g>
</svg>
